# xmcd CD database file
#
# Track frame offsets:
#	150
#	19920
#	39080
#	54007
#	74405
#	90367
#	107577
#	120997
#	133167
#	152380
#	171347
#	186800
#	204990
#	219047
#	237280
#
# Disc length: 3369 seconds
#
# Revision: 11
# Processed by: cddbd v1.5.2PL0 Copyright (c) Steve Scherf et al.
# Submitted via: CDex 1.72
#
DISCID=b40d270f
DTITLE=Griffith, Nanci (USA-94-Flyer-flk) - Flyer
DYEAR=1994
DGENRE=Folk
TTITLE0=The Flyer
TTITLE1=Nobody's Angel
TTITLE2=Say It Isn't So
TTITLE3=Southbound Train
TTITLE4=These Days In An Open Book
TTITLE5=Time Of Inconvenience
TTITLE6=Don't Forget About Me
TTITLE7=Always Will
TTITLE8=Going Back To Georgia
TTITLE9=Talk To Me While I'm Listening
TTITLE10=Fragile
TTITLE11=On Grafton Street
TTITLE12=Anything You Need But Me
TTITLE13=Goodnight To A Mother's Dream
TTITLE14=This Heart
EXTD=07559-61681-20 YEAR: 1994
EXTT0=
EXTT1=
EXTT2=
EXTT3=
EXTT4=
EXTT5=
EXTT6=
EXTT7=
EXTT8=
EXTT9=
EXTT10=
EXTT11=
EXTT12=
EXTT13=
EXTT14=
PLAYORDER=
